<svg xmlns="http://www.w3.org/2000/svg" viewBox="0 0 141.26 150.35"><defs><style>.cls-1,.cls-4{fill:none;}.cls-1,.cls-5{stroke:#fff;}.cls-1,.cls-4,.cls-5{stroke-linecap:round;stroke-linejoin:round;stroke-width:8.26px;}.cls-2,.cls-5{fill:#77c88b;}.cls-3{fill:#fff;}.cls-4{stroke:#3b6e4b;}</style></defs><title>notes</title><g id="Layer_2" data-name="Layer 2"><g id="Layer_1-2" data-name="Layer 1"><rect class="cls-1" x="4.13" y="21.48" width="104.09" height="124.74" rx="13.22"/><path class="cls-2" d="M42.74,31.39a10,10,0,0,1,0-20h4.14a10,10,0,0,1,19.24,0h3.49a10,10,0,0,1,0,20.05Z"/><path class="cls-3" d="M56.5,8.26a5.9,5.9,0,0,1,5.9,5.9v1.31h7.2a5.9,5.9,0,1,1,0,11.79H42.74a5.9,5.9,0,0,1,0-11.79H50.6V14.16a5.9,5.9,0,0,1,5.9-5.9M56.5,0A14.17,14.17,0,0,0,44.17,7.21H42.74a14.16,14.16,0,0,0,0,28.31H69.6a14.16,14.16,0,1,0,0-28.31h-.77A14.17,14.17,0,0,0,56.5,0Z"/><line class="cls-4" x1="25.82" y1="61.34" x2="86.53" y2="61.34"/><line class="cls-4" x1="25.82" y1="83.85" x2="86.53" y2="83.85"/><line class="cls-4" x1="25.82" y1="106.36" x2="86.53" y2="106.36"/><circle class="cls-5" cx="107.8" cy="71.04" r="29.33"/><polyline class="cls-4" points="98.75 69.96 106.72 75.75 116.86 59.1"/></g></g></svg>